<?xml version="1.0" encoding="UTF-8" standalone="no"?><!DOCTYPE svg PUBLIC "-//W3C//DTD SVG 1.1//EN" "http://www.w3.org/Graphics/SVG/1.1/DTD/svg11.dtd"><svg width="100%" height="100%" viewBox="0 0 300 65" version="1.1" xmlns="http://www.w3.org/2000/svg" xmlns:xlink="http://www.w3.org/1999/xlink" xml:space="preserve" xmlns:serif="http://www.serif.com/" style="fill-rule:evenodd;clip-rule:evenodd;stroke-linejoin:round;stroke-miterlimit:1.41421;"><path d="M164.977,37.49c-1.088,0 -1.935,-0.282 -2.54,-0.847c-0.606,-0.564 -1.026,-1.294 -1.26,-2.189c-0.909,0.936 -1.956,1.697 -3.14,2.282c-1.184,0.585 -2.589,0.878 -4.214,0.878c-2.575,0 -4.444,-0.713 -5.608,-2.138c-1.163,-1.425 -1.745,-3.584 -1.745,-6.475l0,-11.093c0,-0.344 -0.086,-0.63 -0.258,-0.857c-0.173,-0.227 -0.445,-0.368 -0.816,-0.423l-2.582,-0.455l0,-2.024c1.143,-0.33 2.382,-0.575 3.718,-0.733c1.335,-0.159 2.568,-0.251 3.697,-0.279l0.661,0.661l0,14.438c0,2.204 0.317,3.822 0.95,4.854c0.634,1.033 1.818,1.55 3.553,1.55c1.019,0 2,-0.166 2.943,-0.496c0.944,-0.331 1.828,-0.84 2.655,-1.529l0,-14.707c0,-0.358 -0.093,-0.65 -0.279,-0.877c-0.186,-0.228 -0.458,-0.369 -0.816,-0.424l-3.078,-0.496l0,-2.024c1.171,-0.303 2.493,-0.537 3.966,-0.702c1.474,-0.165 2.796,-0.248 3.966,-0.248l0.661,0.661l0,19.437c0,0.482 0.11,0.816 0.331,1.002c0.22,0.186 0.509,0.299 0.867,0.341l2.355,0.206l0,1.962c-0.455,0.152 -1.067,0.314 -1.839,0.486c-0.771,0.172 -1.487,0.258 -2.148,0.258Z" style="fill:#fff;fill-rule:nonzero;"/><path d="M173.157,35.858c-0.138,-1.101 -0.193,-2.2 -0.165,-3.294c0.027,-1.095 0.11,-2.111 0.248,-3.047l2.354,0l0.806,3.119c0.11,0.468 0.234,0.823 0.372,1.064c0.137,0.241 0.358,0.458 0.661,0.65c0.358,0.221 0.912,0.462 1.662,0.723c0.751,0.262 1.615,0.393 2.593,0.393c1.446,0 2.544,-0.331 3.294,-0.992c0.751,-0.661 1.126,-1.535 1.126,-2.623c0,-0.661 -0.141,-1.222 -0.423,-1.683c-0.283,-0.462 -0.692,-0.878 -1.229,-1.25c-0.538,-0.372 -1.205,-0.73 -2.004,-1.074c-0.799,-0.344 -1.714,-0.723 -2.747,-1.136c-1.846,-0.771 -3.36,-1.642 -4.545,-2.613c-1.184,-0.971 -1.776,-2.4 -1.776,-4.286c0,-1.116 0.214,-2.097 0.64,-2.944c0.427,-0.847 1.023,-1.556 1.787,-2.127c0.764,-0.572 1.684,-1.002 2.758,-1.291c1.074,-0.289 2.251,-0.434 3.532,-0.434c1.198,0 2.447,0.131 3.749,0.393c1.301,0.261 2.372,0.578 3.212,0.95c0.055,0.991 0.048,2 -0.021,3.026c-0.069,1.026 -0.193,2.034 -0.372,3.026l-2.21,0l-0.702,-2.809c-0.097,-0.386 -0.227,-0.71 -0.393,-0.971c-0.165,-0.262 -0.42,-0.496 -0.764,-0.702c-0.303,-0.179 -0.699,-0.345 -1.188,-0.496c-0.488,-0.152 -1.063,-0.234 -1.724,-0.248c-1.198,-0.014 -2.2,0.255 -3.006,0.805c-0.805,0.551 -1.208,1.405 -1.208,2.562c0,0.702 0.155,1.291 0.465,1.766c0.31,0.475 0.719,0.885 1.229,1.229c0.509,0.344 1.091,0.647 1.745,0.909c0.654,0.261 1.325,0.523 2.014,0.785c0.95,0.358 1.873,0.75 2.768,1.177c0.895,0.427 1.683,0.929 2.365,1.508c0.682,0.578 1.232,1.26 1.652,2.045c0.42,0.785 0.63,1.714 0.63,2.788c0,1.102 -0.223,2.083 -0.671,2.944c-0.447,0.86 -1.074,1.583 -1.88,2.169c-0.805,0.585 -1.773,1.029 -2.902,1.332c-1.129,0.303 -2.368,0.454 -3.718,0.454c-1.638,0 -3.157,-0.193 -4.554,-0.578c-1.398,-0.386 -2.551,-0.792 -3.46,-1.219Z" style="fill:#fff;fill-rule:nonzero;"/><path d="M195.258,35.858c-0.137,-1.101 -0.192,-2.2 -0.165,-3.294c0.028,-1.095 0.11,-2.111 0.248,-3.047l2.355,0l0.805,3.119c0.111,0.468 0.234,0.823 0.372,1.064c0.138,0.241 0.358,0.458 0.661,0.65c0.358,0.221 0.912,0.462 1.663,0.723c0.75,0.262 1.615,0.393 2.592,0.393c1.446,0 2.544,-0.331 3.295,-0.992c0.75,-0.661 1.126,-1.535 1.126,-2.623c0,-0.661 -0.142,-1.222 -0.424,-1.683c-0.282,-0.462 -0.692,-0.878 -1.229,-1.25c-0.537,-0.372 -1.205,-0.73 -2.004,-1.074c-0.798,-0.344 -1.714,-0.723 -2.747,-1.136c-1.845,-0.771 -3.36,-1.642 -4.544,-2.613c-1.184,-0.971 -1.776,-2.4 -1.776,-4.286c0,-1.116 0.213,-2.097 0.64,-2.944c0.427,-0.847 1.022,-1.556 1.787,-2.127c0.764,-0.572 1.683,-1.002 2.757,-1.291c1.074,-0.289 2.252,-0.434 3.532,-0.434c1.198,0 2.448,0.131 3.749,0.393c1.302,0.261 2.372,0.578 3.212,0.95c0.055,0.991 0.049,2 -0.02,3.026c-0.069,1.026 -0.193,2.034 -0.372,3.026l-2.21,0l-0.703,-2.809c-0.096,-0.386 -0.227,-0.71 -0.392,-0.971c-0.165,-0.262 -0.42,-0.496 -0.764,-0.702c-0.303,-0.179 -0.699,-0.345 -1.188,-0.496c-0.489,-0.152 -1.064,-0.234 -1.725,-0.248c-1.198,-0.014 -2.2,0.255 -3.005,0.805c-0.806,0.551 -1.209,1.405 -1.209,2.562c0,0.702 0.155,1.291 0.465,1.766c0.31,0.475 0.72,0.885 1.229,1.229c0.51,0.344 1.092,0.647 1.746,0.909c0.654,0.261 1.325,0.523 2.014,0.785c0.95,0.358 1.872,0.75 2.767,1.177c0.896,0.427 1.684,0.929 2.366,1.508c0.681,0.578 1.232,1.26 1.652,2.045c0.42,0.785 0.63,1.714 0.63,2.788c0,1.102 -0.224,2.083 -0.671,2.944c-0.448,0.86 -1.074,1.583 -1.88,2.169c-0.806,0.585 -1.773,1.029 -2.902,1.332c-1.129,0.303 -2.369,0.454 -3.718,0.454c-1.639,0 -3.157,-0.193 -4.555,-0.578c-1.397,-0.386 -2.551,-0.792 -3.46,-1.219Z" style="fill:#fff;fill-rule:nonzero;"/><path d="M224.755,13.798l0,19.54c0,0.372 0.096,0.668 0.289,0.888c0.193,0.221 0.468,0.358 0.826,0.414l2.541,0.392l0,2.107l-11.753,0l0,-2.107l2.54,-0.392c0.358,-0.056 0.637,-0.193 0.837,-0.414c0.2,-0.22 0.299,-0.509 0.299,-0.867l0,-15.389c0,-0.371 -0.093,-0.667 -0.278,-0.888c-0.186,-0.22 -0.458,-0.358 -0.816,-0.413l-2.871,-0.413l0,-2.024c1.184,-0.358 2.471,-0.623 3.862,-0.795c1.391,-0.173 2.678,-0.272 3.863,-0.3l0.661,0.661Zm0.33,-7.064c0,0.881 -0.282,1.601 -0.847,2.158c-0.564,0.558 -1.301,0.837 -2.21,0.837c-0.909,0 -1.645,-0.279 -2.21,-0.837c-0.565,-0.557 -0.847,-1.277 -0.847,-2.158c0,-0.868 0.282,-1.577 0.847,-2.128c0.565,-0.551 1.301,-0.826 2.21,-0.826c0.909,0 1.646,0.275 2.21,0.826c0.565,0.551 0.847,1.26 0.847,2.128Z" style="fill:#fff;fill-rule:nonzero;"/><path d="M231.552,25.654c0,-1.817 0.244,-3.501 0.733,-5.05c0.489,-1.549 1.209,-2.885 2.159,-4.007c0.95,-1.122 2.141,-2 3.573,-2.634c1.432,-0.633 3.078,-0.95 4.937,-0.95c1.308,0 2.634,0.145 3.976,0.434c1.343,0.289 2.42,0.64 3.233,1.053c0.069,1.074 0.062,2.235 -0.021,3.481c-0.082,1.246 -0.213,2.406 -0.392,3.48l-2.272,0l-0.868,-3.449c-0.096,-0.386 -0.2,-0.713 -0.31,-0.981c-0.11,-0.269 -0.296,-0.513 -0.558,-0.734c-0.344,-0.275 -0.795,-0.506 -1.352,-0.692c-0.558,-0.186 -1.188,-0.278 -1.89,-0.278c-1.928,0 -3.422,0.778 -4.483,2.334c-1.06,1.556 -1.59,3.904 -1.59,7.043c0,3.291 0.595,5.756 1.786,7.395c1.192,1.639 2.868,2.458 5.03,2.458c1.295,0 2.451,-0.255 3.47,-0.764c1.019,-0.51 1.846,-1.109 2.479,-1.797l1.26,1.136c-0.661,1.363 -1.732,2.454 -3.212,3.274c-1.48,0.819 -3.233,1.229 -5.257,1.229c-1.721,0 -3.239,-0.3 -4.554,-0.899c-1.316,-0.599 -2.403,-1.429 -3.264,-2.489c-0.861,-1.06 -1.511,-2.327 -1.952,-3.801c-0.441,-1.473 -0.661,-3.07 -0.661,-4.792Z" style="fill:#fff;fill-rule:nonzero;"/><path d="M265.271,35.032l0,2.107l-11.443,0l0,-2.107l2.541,-0.392c0.358,-0.056 0.633,-0.186 0.826,-0.393c0.193,-0.206 0.289,-0.496 0.289,-0.867l0,-28.671c0,-0.358 -0.1,-0.64 -0.299,-0.846c-0.2,-0.207 -0.472,-0.338 -0.816,-0.393l-3.037,-0.454l0,-1.88c0.579,-0.179 1.209,-0.337 1.89,-0.475c0.682,-0.138 1.371,-0.251 2.066,-0.341c0.695,-0.089 1.384,-0.162 2.066,-0.217c0.681,-0.055 1.311,-0.089 1.89,-0.103l0.661,0.682l0,15.574c1.129,-1.157 2.396,-1.973 3.8,-2.448c1.405,-0.475 2.823,-0.712 4.255,-0.712c2.741,0 4.607,0.798 5.598,2.396c0.991,1.597 1.487,3.821 1.487,6.672l0,11.216c0,0.358 0.1,0.643 0.3,0.857c0.199,0.213 0.478,0.347 0.836,0.403l2.541,0.392l0,2.107l-11.464,0l0,-2.107l2.251,-0.392c0.331,-0.056 0.599,-0.183 0.806,-0.383c0.207,-0.199 0.31,-0.492 0.31,-0.877l0,-10.411c0,-2.272 -0.31,-3.969 -0.93,-5.092c-0.619,-1.122 -1.817,-1.683 -3.594,-1.683c-1.088,0 -2.165,0.165 -3.232,0.496c-1.068,0.33 -2.056,0.84 -2.964,1.528l0,15.162c0,0.371 0.096,0.657 0.289,0.857c0.193,0.199 0.468,0.334 0.826,0.403l2.251,0.392Z" style="fill:#fff;fill-rule:nonzero;"/><path d="M285.999,31.293l0,-14.645l-3.573,-0.454l0,-1.962l2.623,-0.351c0.372,-0.055 0.654,-0.179 0.847,-0.372c0.193,-0.193 0.338,-0.462 0.434,-0.806l1.467,-6.073l2.561,0l0.062,7.023l7.725,0l0,2.83l-7.705,0l0,13.344c0,1.79 0.307,2.988 0.92,3.594c0.612,0.606 1.442,0.909 2.489,0.909c0.867,0 1.669,-0.159 2.406,-0.475c0.737,-0.317 1.374,-0.772 1.911,-1.364l1.28,1.178c-0.619,1.28 -1.573,2.255 -2.86,2.923c-1.288,0.667 -2.71,1.001 -4.266,1.001c-0.84,0 -1.645,-0.096 -2.417,-0.289c-0.771,-0.193 -1.442,-0.527 -2.014,-1.002c-0.571,-0.475 -1.029,-1.119 -1.373,-1.931c-0.344,-0.812 -0.517,-1.838 -0.517,-3.078Z" style="fill:#fff;fill-rule:nonzero;"/><path d="M4.131,11.34c0,-1.57 0.286,-3.047 0.857,-4.431c0.572,-1.384 1.315,-2.582 2.231,-3.594c0.916,-1.012 1.959,-1.811 3.129,-2.396c1.171,-0.585 2.341,-0.878 3.512,-0.878c0.909,0 1.807,0.152 2.696,0.455c0.888,0.303 1.745,0.688 2.571,1.156l-0.743,2.872c-0.799,-0.138 -1.632,-0.252 -2.5,-0.341c-0.867,-0.09 -1.618,-0.128 -2.251,-0.114c-1.79,0 -3.095,0.396 -3.915,1.188c-0.819,0.792 -1.229,2.22 -1.229,4.286l0,4.152l7.023,0l0,2.891l-7.002,0l0,16.835c0,0.372 0.097,0.661 0.289,0.867c0.193,0.207 0.482,0.324 0.868,0.352l4.379,0.413l0,2.107l-13.633,0l0,-2.107l2.541,-0.393c0.372,-0.055 0.654,-0.182 0.847,-0.382c0.192,-0.2 0.289,-0.485 0.289,-0.857l0,-16.69l-4.09,-0.496l0,-1.962l4.131,-0.578l0,-2.355Z" style="fill:#fff;fill-rule:nonzero;"/><path d="M31.943,35.115l0,2.045l-13.426,0l0,-2.107l2.541,-0.393c0.358,-0.055 0.636,-0.189 0.836,-0.403c0.2,-0.213 0.3,-0.499 0.3,-0.857l0,-15.306c0,-0.413 -0.086,-0.736 -0.259,-0.97c-0.172,-0.235 -0.457,-0.379 -0.857,-0.434l-2.85,-0.413l0,-2.025c1.088,-0.33 2.265,-0.592 3.532,-0.785c1.267,-0.192 2.437,-0.296 3.511,-0.309l0.703,0.661l0.475,3.78c0.427,-0.593 0.936,-1.164 1.528,-1.715c0.592,-0.551 1.226,-1.036 1.9,-1.456c0.675,-0.42 1.388,-0.757 2.138,-1.012c0.751,-0.255 1.498,-0.382 2.241,-0.382c0.427,0 0.916,0.048 1.467,0.144c0.551,0.097 0.998,0.234 1.343,0.413c0.096,1.157 0.099,2.465 0.01,3.925c-0.09,1.46 -0.258,2.789 -0.506,3.987l-2.169,0l-0.599,-3.202c-0.096,-0.455 -0.251,-0.771 -0.465,-0.95c-0.213,-0.179 -0.526,-0.269 -0.94,-0.269c-0.963,-0.014 -1.951,0.179 -2.964,0.579c-1.012,0.399 -1.952,1.032 -2.819,1.9l0,13.839c0,0.372 0.1,0.665 0.299,0.878c0.2,0.214 0.486,0.341 0.858,0.382l4.172,0.455Z" style="fill:#fff;fill-rule:nonzero;"/><path d="M39.855,25.489c0,-2.162 0.3,-4.035 0.899,-5.618c0.599,-1.584 1.408,-2.878 2.427,-3.884c1.019,-1.005 2.22,-1.748 3.604,-2.23c1.384,-0.482 2.854,-0.723 4.41,-0.723c1.832,0 3.419,0.292 4.761,0.878c1.343,0.585 2.445,1.404 3.305,2.458c0.861,1.053 1.498,2.334 1.911,3.842c0.413,1.507 0.619,3.177 0.619,5.009c0,2.162 -0.299,4.031 -0.898,5.608c-0.599,1.576 -1.408,2.867 -2.427,3.873c-1.019,1.005 -2.224,1.748 -3.615,2.23c-1.391,0.482 -2.864,0.723 -4.42,0.723c-1.832,0 -3.419,-0.292 -4.761,-0.878c-1.343,-0.585 -2.441,-1.404 -3.295,-2.458c-0.854,-1.053 -1.487,-2.334 -1.9,-3.842c-0.413,-1.507 -0.62,-3.17 -0.62,-4.988Zm17.041,0.145c0,-1.556 -0.1,-2.968 -0.299,-4.235c-0.2,-1.267 -0.541,-2.344 -1.023,-3.232c-0.482,-0.889 -1.122,-1.574 -1.921,-2.056c-0.799,-0.482 -1.797,-0.723 -2.995,-0.723c-2.01,0 -3.501,0.765 -4.472,2.293c-0.971,1.529 -1.456,3.987 -1.456,7.374c0,1.543 0.1,2.947 0.299,4.214c0.2,1.267 0.537,2.344 1.013,3.233c0.475,0.888 1.115,1.576 1.921,2.065c0.805,0.489 1.814,0.734 3.026,0.734c1.996,0 3.48,-0.768 4.451,-2.304c0.971,-1.535 1.456,-3.99 1.456,-7.363Z" style="fill:#fff;fill-rule:nonzero;"/><path d="M76.125,35.053l0,2.107l-11.443,0l0,-2.107l2.54,-0.393c0.358,-0.055 0.634,-0.186 0.827,-0.392c0.192,-0.207 0.289,-0.496 0.289,-0.868l0,-28.67c0,-0.358 -0.1,-0.64 -0.3,-0.847c-0.199,-0.206 -0.471,-0.337 -0.816,-0.392l-3.036,-0.455l0,-1.879c0.578,-0.179 1.208,-0.338 1.89,-0.475c0.682,-0.138 1.37,-0.252 2.066,-0.341c0.695,-0.09 1.384,-0.162 2.065,-0.217c0.682,-0.055 1.312,-0.09 1.89,-0.103l0.661,0.681l0,15.575c1.129,-1.157 2.396,-1.973 3.801,-2.448c1.404,-0.475 2.823,-0.713 4.255,-0.713c2.74,0 4.606,0.799 5.598,2.396c0.991,1.598 1.487,3.822 1.487,6.672l0,11.216c0,0.358 0.1,0.644 0.299,0.857c0.2,0.214 0.479,0.348 0.837,0.403l2.54,0.393l0,2.107l-11.463,0l0,-2.107l2.251,-0.393c0.331,-0.055 0.599,-0.182 0.806,-0.382c0.206,-0.2 0.309,-0.492 0.309,-0.878l0,-10.41c0,-2.272 -0.309,-3.97 -0.929,-5.092c-0.62,-1.122 -1.818,-1.683 -3.594,-1.683c-1.088,0 -2.166,0.165 -3.233,0.495c-1.067,0.331 -2.055,0.84 -2.964,1.529l0,15.161c0,0.372 0.097,0.658 0.289,0.857c0.193,0.2 0.469,0.334 0.827,0.403l2.251,0.393Z" style="fill:#fff;fill-rule:nonzero;"/><path d="M109.556,35.205c3.157,-0.737 5.771,-2.634 7.627,-7.926l7.763,-22.508l4.421,0l10.265,28.567c0.111,0.303 0.269,0.541 0.476,0.713c0.206,0.172 0.461,0.299 0.764,0.382l2.375,0.599l0,2.107l-12.228,0l0,-2.107l4.09,-0.744l-2.349,-6.114l-12.748,0c-0.05,0.176 -0.504,1.203 -0.791,1.839c-0.527,1.168 -1.171,2.222 -1.932,3.16c-0.665,0.818 -1.426,1.539 -2.284,2.162c-0.7,0.508 -1.464,0.95 -2.293,1.328c-1.844,0.84 -3.973,1.26 -6.387,1.26c-2.838,0 -5.295,-0.575 -7.371,-1.724c-2.076,-1.149 -3.426,-2.685 -4.353,-4.597l0.001,0.001c-0.149,-0.285 -0.231,-0.565 -0.397,-1.136c-0.426,-1.473 -0.64,-3.078 -0.64,-4.813c0,-1.969 0.262,-3.738 0.785,-5.308c0.523,-1.57 1.267,-2.895 2.231,-3.976c0.964,-1.081 2.127,-1.908 3.491,-2.479c1.363,-0.572 2.878,-0.857 4.544,-0.857c1.28,0 2.451,0.175 3.511,0.526c1.061,0.352 1.969,0.865 2.727,1.539c0.757,0.675 1.346,1.522 1.766,2.541c0.42,1.019 0.63,2.196 0.63,3.532c0,0.386 -0.021,0.85 -0.062,1.394c-0.041,0.544 -0.096,1.029 -0.165,1.457l-14.79,0l0,0.64c0,1.859 0.179,3.425 0.537,4.699c0.358,1.274 0.758,2.293 1.378,3.057c0.62,0.764 1.602,1.522 2.477,1.997c0.848,0.462 1.793,0.674 2.767,0.855c1.071,0.199 2.813,0.249 4.164,-0.066Zm22.425,-9.551l-5.671,-16.71l-5.561,16.71l11.232,0Zm-27.985,-10.266c-1.487,0 -2.719,0.513 -3.697,1.539c-0.978,1.026 -1.611,2.661 -1.901,4.906l10.39,0c0.014,-0.151 0.028,-0.306 0.042,-0.465c0.013,-0.158 0.02,-0.327 0.02,-0.506c0,-1.611 -0.42,-2.926 -1.26,-3.945c-0.84,-1.019 -2.038,-1.529 -3.594,-1.529Z" style="fill:#fff;"/><path d="M168.203,55.221l-0.794,-1.486l-0.059,0l0.147,1.486l0,6.737l-1.147,0l0,-10.459l0.647,0l4.927,6.87l0.765,1.412l0.074,0l-0.162,-1.412l0,-6.708l1.147,0l0,10.459l-0.647,0l-4.898,-6.899Z" style="fill:#fff;fill-rule:nonzero;"/><path d="M175.72,58.28c0,-1.245 0.277,-2.199 0.831,-2.861c0.554,-0.662 1.35,-0.993 2.39,-0.993c0.549,0 1.027,0.091 1.434,0.273c0.407,0.181 0.743,0.441 1.008,0.779c0.264,0.339 0.461,0.746 0.588,1.221c0.128,0.476 0.191,1.003 0.191,1.581c0,1.246 -0.277,2.199 -0.831,2.861c-0.554,0.662 -1.351,0.993 -2.39,0.993c-0.549,0 -1.027,-0.09 -1.434,-0.272c-0.407,-0.181 -0.743,-0.441 -1.008,-0.779c-0.265,-0.339 -0.461,-0.746 -0.588,-1.221c-0.128,-0.476 -0.191,-1.003 -0.191,-1.582Zm1.22,0c0,0.373 0.037,0.731 0.111,1.074c0.073,0.343 0.189,0.642 0.345,0.897c0.157,0.255 0.363,0.461 0.618,0.618c0.255,0.157 0.564,0.236 0.927,0.236c1.334,0.009 2,-0.932 2,-2.825c0,-0.382 -0.036,-0.745 -0.11,-1.088c-0.073,-0.343 -0.189,-0.642 -0.346,-0.897c-0.156,-0.255 -0.362,-0.459 -0.617,-0.611c-0.255,-0.152 -0.564,-0.228 -0.927,-0.228c-1.334,-0.01 -2.001,0.932 -2.001,2.824Z" style="fill:#fff;fill-rule:nonzero;"/><path d="M194.268,54.015c0,0.245 -0.039,0.495 -0.117,0.75c-0.079,0.255 -0.197,0.493 -0.354,0.713c-0.156,0.221 -0.357,0.415 -0.603,0.581c-0.245,0.167 -0.534,0.294 -0.867,0.383l0,0.059c0.294,0.049 0.576,0.132 0.845,0.25c0.27,0.117 0.508,0.279 0.714,0.485c0.206,0.206 0.372,0.456 0.5,0.75c0.127,0.294 0.191,0.643 0.191,1.045c0,0.529 -0.11,0.988 -0.331,1.375c-0.221,0.387 -0.51,0.704 -0.868,0.949c-0.358,0.245 -0.767,0.426 -1.228,0.544c-0.461,0.118 -0.932,0.176 -1.412,0.176c-0.167,0 -0.363,0 -0.588,0c-0.226,0 -0.461,-0.007 -0.707,-0.022c-0.245,-0.014 -0.49,-0.034 -0.735,-0.058c-0.245,-0.025 -0.461,-0.062 -0.647,-0.111l0,-10.135c0.363,-0.058 0.784,-0.108 1.265,-0.147c0.48,-0.039 1.005,-0.059 1.574,-0.059c0.382,0 0.772,0.032 1.169,0.096c0.397,0.064 0.758,0.186 1.081,0.368c0.324,0.181 0.591,0.434 0.802,0.757c0.211,0.324 0.316,0.741 0.316,1.251Zm-3.412,7.001c0.313,0 0.617,-0.036 0.912,-0.11c0.294,-0.074 0.554,-0.191 0.779,-0.353c0.226,-0.162 0.405,-0.36 0.537,-0.596c0.132,-0.235 0.199,-0.515 0.199,-0.838c0,-0.402 -0.081,-0.726 -0.243,-0.971c-0.162,-0.245 -0.373,-0.436 -0.633,-0.574c-0.259,-0.137 -0.551,-0.23 -0.875,-0.279c-0.323,-0.049 -0.647,-0.074 -0.971,-0.074l-1.279,0l0,3.692c0.068,0.02 0.166,0.035 0.294,0.045c0.127,0.009 0.265,0.019 0.412,0.029c0.147,0.01 0.299,0.017 0.456,0.022c0.157,0.005 0.294,0.007 0.412,0.007Zm-0.809,-4.824c0.166,0 0.367,-0.005 0.603,-0.015c0.235,-0.01 0.431,-0.025 0.588,-0.044c0.235,-0.079 0.456,-0.174 0.662,-0.287c0.206,-0.113 0.39,-0.245 0.552,-0.397c0.161,-0.152 0.289,-0.329 0.382,-0.53c0.093,-0.201 0.14,-0.419 0.14,-0.654c0,-0.324 -0.062,-0.591 -0.184,-0.802c-0.123,-0.211 -0.287,-0.38 -0.493,-0.507c-0.206,-0.128 -0.441,-0.219 -0.706,-0.273c-0.265,-0.054 -0.534,-0.08 -0.809,-0.08c-0.324,0 -0.62,0.007 -0.89,0.022c-0.27,0.014 -0.473,0.036 -0.61,0.066l0,3.501l0.765,0Z" style="fill:#fff;fill-rule:nonzero;"/><path d="M197.593,54.603l0,4.192c0,0.383 0.022,0.719 0.066,1.008c0.044,0.289 0.12,0.529 0.228,0.721c0.108,0.191 0.255,0.335 0.441,0.434c0.186,0.098 0.422,0.147 0.706,0.147c0.265,0 0.5,-0.042 0.706,-0.125c0.206,-0.084 0.39,-0.199 0.552,-0.346c0.162,-0.147 0.304,-0.316 0.426,-0.508c0.123,-0.191 0.223,-0.394 0.302,-0.61l0,-4.913l1.177,0l0,5.266c0,0.353 0.012,0.718 0.036,1.096c0.025,0.377 0.067,0.708 0.125,0.993l-0.809,0l-0.294,-1.162l-0.073,0c-0.226,0.382 -0.53,0.701 -0.912,0.956c-0.383,0.255 -0.868,0.382 -1.457,0.382c-0.392,0 -0.737,-0.046 -1.037,-0.139c-0.299,-0.094 -0.549,-0.258 -0.75,-0.493c-0.201,-0.236 -0.353,-0.552 -0.456,-0.949c-0.103,-0.397 -0.154,-0.9 -0.154,-1.508l0,-4.442l1.177,0Z" style="fill:#fff;fill-rule:nonzero;"/><path d="M205.771,60.148c0,0.344 0.059,0.589 0.177,0.736c0.117,0.147 0.284,0.221 0.5,0.221c0.127,0 0.264,-0.01 0.412,-0.03c0.147,-0.019 0.313,-0.064 0.5,-0.132l0.132,0.926c-0.157,0.079 -0.375,0.143 -0.655,0.192c-0.279,0.049 -0.522,0.073 -0.728,0.073c-0.441,0 -0.804,-0.125 -1.088,-0.375c-0.285,-0.25 -0.427,-0.674 -0.427,-1.272l0,-8.826l1.177,0l0,8.487Z" style="fill:#fff;fill-rule:nonzero;"/><path d="M210.066,60.148c0,0.344 0.059,0.589 0.177,0.736c0.117,0.147 0.284,0.221 0.5,0.221c0.127,0 0.265,-0.01 0.412,-0.03c0.147,-0.019 0.313,-0.064 0.5,-0.132l0.132,0.926c-0.157,0.079 -0.375,0.143 -0.654,0.192c-0.28,0.049 -0.523,0.073 -0.728,0.073c-0.442,0 -0.805,-0.125 -1.089,-0.375c-0.284,-0.25 -0.427,-0.674 -0.427,-1.272l0,-8.826l1.177,0l0,8.487Z" style="fill:#fff;fill-rule:nonzero;"/><path d="M216.288,59.957c0,-0.294 -0.088,-0.524 -0.264,-0.691c-0.177,-0.167 -0.395,-0.307 -0.655,-0.419c-0.26,-0.113 -0.544,-0.221 -0.853,-0.324c-0.309,-0.103 -0.593,-0.235 -0.853,-0.397c-0.26,-0.162 -0.478,-0.37 -0.655,-0.625c-0.176,-0.255 -0.265,-0.598 -0.265,-1.03c0,-0.706 0.201,-1.223 0.603,-1.552c0.402,-0.328 0.961,-0.493 1.677,-0.493c0.53,0 0.974,0.047 1.331,0.14c0.358,0.093 0.67,0.204 0.935,0.331l-0.28,0.971c-0.225,-0.108 -0.498,-0.203 -0.816,-0.287c-0.319,-0.083 -0.66,-0.125 -1.023,-0.125c-0.431,0 -0.747,0.074 -0.948,0.221c-0.201,0.147 -0.302,0.402 -0.302,0.765c0,0.255 0.088,0.453 0.265,0.595c0.176,0.143 0.395,0.27 0.654,0.383c0.26,0.113 0.545,0.223 0.854,0.331c0.308,0.108 0.593,0.25 0.853,0.426c0.26,0.177 0.478,0.4 0.654,0.67c0.177,0.269 0.265,0.625 0.265,1.066c0,0.314 -0.051,0.608 -0.154,0.883c-0.103,0.274 -0.263,0.51 -0.478,0.706c-0.216,0.196 -0.483,0.35 -0.802,0.463c-0.319,0.113 -0.694,0.169 -1.125,0.169c-0.559,0 -1.035,-0.054 -1.427,-0.162c-0.392,-0.107 -0.721,-0.235 -0.986,-0.382l0.353,-1c0.226,0.127 0.52,0.245 0.883,0.353c0.363,0.108 0.73,0.162 1.103,0.162c0.422,0 0.77,-0.084 1.044,-0.25c0.275,-0.167 0.412,-0.466 0.412,-0.898Z" style="fill:#fff;fill-rule:nonzero;"/><path d="M223.967,61.958l0,-4.192c0,-0.383 -0.022,-0.719 -0.067,-1.008c-0.044,-0.289 -0.125,-0.53 -0.242,-0.721c-0.118,-0.191 -0.277,-0.336 -0.478,-0.434c-0.201,-0.098 -0.464,-0.147 -0.787,-0.147c-0.461,0 -0.878,0.15 -1.251,0.449c-0.372,0.299 -0.612,0.684 -0.72,1.154l0,4.899l-1.177,0l0,-10.297l1.177,0l0,3.766l0.059,0c0.254,-0.304 0.561,-0.547 0.919,-0.728c0.358,-0.182 0.802,-0.273 1.331,-0.273c0.412,0 0.77,0.047 1.074,0.14c0.304,0.093 0.556,0.258 0.757,0.493c0.201,0.235 0.349,0.552 0.442,0.949c0.093,0.397 0.139,0.899 0.139,1.507l0,4.443l-1.176,0Z" style="fill:#fff;fill-rule:nonzero;"/><path d="M227.541,54.603l1.177,0l0,7.355l-1.177,0l0,-7.355Zm-0.25,-2.236c0,-0.225 0.076,-0.419 0.228,-0.581c0.152,-0.162 0.346,-0.243 0.581,-0.243c0.235,0 0.436,0.081 0.603,0.243c0.167,0.162 0.25,0.356 0.25,0.581c0,0.226 -0.083,0.412 -0.25,0.559c-0.167,0.147 -0.368,0.221 -0.603,0.221c-0.235,0 -0.429,-0.074 -0.581,-0.221c-0.152,-0.147 -0.228,-0.333 -0.228,-0.559Z" style="fill:#fff;fill-rule:nonzero;"/><path d="M230.262,54.603l1.148,0l0,-1.456l1.176,-0.339l0,1.795l2.001,0l0,1.03l-2.001,0l0,4.074c0,0.51 0.064,0.871 0.192,1.081c0.127,0.211 0.343,0.317 0.647,0.317c0.255,0 0.471,-0.027 0.647,-0.081c0.177,-0.054 0.373,-0.125 0.588,-0.214l0.265,0.898c-0.265,0.127 -0.554,0.23 -0.868,0.309c-0.313,0.078 -0.652,0.117 -1.015,0.117c-0.598,0 -1.019,-0.169 -1.265,-0.507c-0.245,-0.339 -0.367,-0.905 -0.367,-1.699l0,-4.295l-1.148,0l0,-1.03Z" style="fill:#fff;fill-rule:nonzero;"/><path d="M236.043,61.281c0,-0.265 0.076,-0.473 0.228,-0.625c0.152,-0.152 0.356,-0.228 0.611,-0.228c0.264,0 0.475,0.076 0.632,0.228c0.157,0.152 0.235,0.36 0.235,0.625c0,0.255 -0.078,0.461 -0.235,0.618c-0.157,0.157 -0.368,0.235 -0.632,0.235c-0.255,0 -0.459,-0.078 -0.611,-0.235c-0.152,-0.157 -0.228,-0.363 -0.228,-0.618Z" style="fill:#fff;fill-rule:nonzero;"/><path d="M247.149,59.339c0,-0.411 -0.123,-0.747 -0.368,-1.007c-0.245,-0.26 -0.552,-0.49 -0.919,-0.691c-0.368,-0.202 -0.768,-0.39 -1.199,-0.567c-0.432,-0.176 -0.831,-0.39 -1.199,-0.64c-0.368,-0.25 -0.674,-0.559 -0.919,-0.926c-0.245,-0.368 -0.368,-0.836 -0.368,-1.405c0,-0.804 0.279,-1.442 0.838,-1.912c0.559,-0.471 1.354,-0.706 2.383,-0.706c0.599,0 1.143,0.044 1.633,0.132c0.49,0.088 0.873,0.201 1.147,0.338l-0.367,1.074c-0.226,-0.108 -0.557,-0.211 -0.993,-0.309c-0.437,-0.098 -0.929,-0.147 -1.478,-0.147c-0.648,0 -1.133,0.145 -1.457,0.434c-0.323,0.289 -0.485,0.63 -0.485,1.022c0,0.383 0.122,0.701 0.368,0.956c0.245,0.255 0.551,0.483 0.919,0.684c0.368,0.201 0.767,0.4 1.199,0.596c0.431,0.196 0.831,0.424 1.199,0.684c0.367,0.26 0.674,0.571 0.919,0.934c0.245,0.363 0.368,0.814 0.368,1.353c0,0.442 -0.079,0.839 -0.236,1.192c-0.157,0.353 -0.387,0.657 -0.691,0.912c-0.304,0.255 -0.672,0.451 -1.103,0.588c-0.432,0.138 -0.922,0.206 -1.471,0.206c-0.736,0 -1.344,-0.056 -1.824,-0.169c-0.481,-0.113 -0.853,-0.238 -1.118,-0.375l0.412,-1.103c0.225,0.127 0.559,0.252 1,0.375c0.441,0.122 0.937,0.184 1.486,0.184c0.323,0 0.627,-0.032 0.912,-0.096c0.284,-0.064 0.529,-0.167 0.735,-0.309c0.206,-0.142 0.37,-0.321 0.493,-0.537c0.123,-0.215 0.184,-0.47 0.184,-0.765Z" style="fill:#fff;fill-rule:nonzero;"/><path d="M255.563,61.369c-0.295,0.236 -0.665,0.422 -1.111,0.559c-0.446,0.138 -0.919,0.206 -1.419,0.206c-0.559,0 -1.045,-0.09 -1.457,-0.272c-0.411,-0.181 -0.75,-0.441 -1.015,-0.779c-0.264,-0.339 -0.46,-0.743 -0.588,-1.214c-0.127,-0.471 -0.191,-1 -0.191,-1.589c0,-1.255 0.279,-2.211 0.838,-2.868c0.559,-0.657 1.358,-0.986 2.398,-0.986c0.333,0 0.667,0.037 1,0.111c0.334,0.073 0.633,0.213 0.897,0.419c0.265,0.206 0.481,0.498 0.648,0.875c0.166,0.378 0.25,0.875 0.25,1.493c0,0.324 -0.03,0.682 -0.089,1.074l-4.721,0c0,0.432 0.044,0.814 0.132,1.147c0.088,0.334 0.226,0.616 0.412,0.846c0.186,0.231 0.429,0.407 0.728,0.53c0.299,0.122 0.664,0.184 1.096,0.184c0.333,0 0.667,-0.059 1,-0.177c0.334,-0.118 0.584,-0.255 0.75,-0.412l0.442,0.853Zm-2.53,-5.913c-0.579,0 -1.042,0.152 -1.39,0.456c-0.349,0.304 -0.557,0.824 -0.626,1.559l3.648,0c0,-0.745 -0.142,-1.267 -0.426,-1.566c-0.285,-0.299 -0.687,-0.449 -1.206,-0.449Z" style="fill:#fff;fill-rule:nonzero;"/><path d="M261.138,55.736c-0.295,-0.098 -0.574,-0.147 -0.839,-0.147c-0.422,0 -0.755,0.115 -1,0.345c-0.245,0.231 -0.397,0.522 -0.456,0.875l0,5.149l-1.177,0l0,-7.355l0.824,0l0.22,0.897l0.059,0c0.187,-0.333 0.41,-0.591 0.67,-0.772c0.259,-0.181 0.59,-0.272 0.992,-0.272c0.285,0 0.604,0.049 0.957,0.147l-0.25,1.133Z" style="fill:#fff;fill-rule:nonzero;"/><path d="M262.917,54.603l1.177,0l0,7.355l-1.177,0l0,-7.355Zm-0.25,-2.236c0,-0.225 0.076,-0.419 0.228,-0.581c0.152,-0.162 0.346,-0.243 0.581,-0.243c0.236,0 0.437,0.081 0.603,0.243c0.167,0.162 0.25,0.356 0.25,0.581c0,0.226 -0.083,0.412 -0.25,0.559c-0.166,0.147 -0.367,0.221 -0.603,0.221c-0.235,0 -0.429,-0.074 -0.581,-0.221c-0.152,-0.147 -0.228,-0.333 -0.228,-0.559Z" style="fill:#fff;fill-rule:nonzero;"/><path d="M266.198,58.28c0,-1.245 0.277,-2.199 0.831,-2.861c0.554,-0.662 1.351,-0.993 2.39,-0.993c0.549,0 1.027,0.091 1.434,0.273c0.407,0.181 0.743,0.441 1.008,0.779c0.265,0.339 0.461,0.746 0.588,1.221c0.128,0.476 0.191,1.003 0.191,1.581c0,1.246 -0.277,2.199 -0.831,2.861c-0.554,0.662 -1.351,0.993 -2.39,0.993c-0.549,0 -1.027,-0.09 -1.434,-0.272c-0.407,-0.181 -0.743,-0.441 -1.008,-0.779c-0.265,-0.339 -0.461,-0.746 -0.588,-1.221c-0.128,-0.476 -0.191,-1.003 -0.191,-1.582Zm1.22,0c0,0.373 0.037,0.731 0.111,1.074c0.073,0.343 0.189,0.642 0.345,0.897c0.157,0.255 0.363,0.461 0.618,0.618c0.255,0.157 0.564,0.236 0.927,0.236c1.334,0.009 2,-0.932 2,-2.825c0,-0.382 -0.036,-0.745 -0.11,-1.088c-0.073,-0.343 -0.189,-0.642 -0.346,-0.897c-0.156,-0.255 -0.362,-0.459 -0.617,-0.611c-0.255,-0.152 -0.564,-0.228 -0.927,-0.228c-1.334,-0.01 -2.001,0.932 -2.001,2.824Z" style="fill:#fff;fill-rule:nonzero;"/><path d="M275.553,54.603l0,4.192c0,0.383 0.022,0.719 0.066,1.008c0.044,0.289 0.12,0.529 0.228,0.721c0.108,0.191 0.255,0.335 0.441,0.434c0.187,0.098 0.422,0.147 0.706,0.147c0.265,0 0.5,-0.042 0.706,-0.125c0.206,-0.084 0.39,-0.199 0.552,-0.346c0.162,-0.147 0.304,-0.316 0.427,-0.508c0.122,-0.191 0.223,-0.394 0.301,-0.61l0,-4.913l1.177,0l0,5.266c0,0.353 0.012,0.718 0.037,1.096c0.024,0.377 0.066,0.708 0.125,0.993l-0.809,0l-0.295,-1.162l-0.073,0c-0.226,0.382 -0.53,0.701 -0.912,0.956c-0.382,0.255 -0.868,0.382 -1.456,0.382c-0.393,0 -0.738,-0.046 -1.037,-0.139c-0.299,-0.094 -0.549,-0.258 -0.75,-0.493c-0.202,-0.236 -0.354,-0.552 -0.456,-0.949c-0.103,-0.397 -0.155,-0.9 -0.155,-1.508l0,-4.442l1.177,0Z" style="fill:#fff;fill-rule:nonzero;"/><path d="M285.658,59.957c0,-0.294 -0.088,-0.524 -0.265,-0.691c-0.176,-0.167 -0.394,-0.307 -0.654,-0.419c-0.26,-0.113 -0.544,-0.221 -0.853,-0.324c-0.309,-0.103 -0.594,-0.235 -0.853,-0.397c-0.26,-0.162 -0.478,-0.37 -0.655,-0.625c-0.176,-0.255 -0.265,-0.598 -0.265,-1.03c0,-0.706 0.201,-1.223 0.603,-1.552c0.402,-0.328 0.961,-0.493 1.677,-0.493c0.53,0 0.974,0.047 1.331,0.14c0.358,0.093 0.67,0.204 0.934,0.331l-0.279,0.971c-0.226,-0.108 -0.498,-0.203 -0.816,-0.287c-0.319,-0.083 -0.66,-0.125 -1.023,-0.125c-0.431,0 -0.747,0.074 -0.948,0.221c-0.201,0.147 -0.302,0.402 -0.302,0.765c0,0.255 0.088,0.453 0.265,0.595c0.176,0.143 0.394,0.27 0.654,0.383c0.26,0.113 0.545,0.223 0.854,0.331c0.308,0.108 0.593,0.25 0.853,0.426c0.26,0.177 0.478,0.4 0.654,0.67c0.177,0.269 0.265,0.625 0.265,1.066c0,0.314 -0.051,0.608 -0.154,0.883c-0.103,0.274 -0.263,0.51 -0.478,0.706c-0.216,0.196 -0.483,0.35 -0.802,0.463c-0.319,0.113 -0.694,0.169 -1.125,0.169c-0.559,0 -1.035,-0.054 -1.427,-0.162c-0.393,-0.107 -0.721,-0.235 -0.986,-0.382l0.353,-1c0.226,0.127 0.52,0.245 0.883,0.353c0.363,0.108 0.73,0.162 1.103,0.162c0.422,0 0.77,-0.084 1.044,-0.25c0.275,-0.167 0.412,-0.466 0.412,-0.898Z" style="fill:#fff;fill-rule:nonzero;"/><path d="M289.924,60.148c0,0.344 0.059,0.589 0.177,0.736c0.117,0.147 0.284,0.221 0.5,0.221c0.127,0 0.264,-0.01 0.412,-0.03c0.147,-0.019 0.313,-0.064 0.5,-0.132l0.132,0.926c-0.157,0.079 -0.375,0.143 -0.655,0.192c-0.279,0.049 -0.522,0.073 -0.728,0.073c-0.441,0 -0.804,-0.125 -1.088,-0.375c-0.285,-0.25 -0.427,-0.674 -0.427,-1.272l0,-8.826l1.177,0l0,8.487Z" style="fill:#fff;fill-rule:nonzero;"/><path d="M295.072,59.369l0.412,1.412l0.074,0l0.323,-1.427l1.427,-4.751l1.192,0l-2.177,6.605c-0.167,0.48 -0.331,0.946 -0.493,1.397c-0.162,0.451 -0.341,0.853 -0.537,1.206c-0.196,0.353 -0.417,0.635 -0.662,0.846c-0.245,0.211 -0.53,0.316 -0.853,0.316c-0.353,0 -0.642,-0.049 -0.868,-0.147l0.206,-1.015c0.127,0.049 0.25,0.074 0.368,0.074c0.274,0 0.539,-0.145 0.794,-0.434c0.255,-0.29 0.466,-0.787 0.633,-1.493l-2.957,-7.355l1.353,0l1.765,4.766Z" style="fill:#fff;fill-rule:nonzero;"/><path d="M298.294,61.281c0,-0.265 0.076,-0.473 0.228,-0.625c0.152,-0.152 0.355,-0.228 0.61,-0.228c0.265,0 0.476,0.076 0.633,0.228c0.157,0.152 0.235,0.36 0.235,0.625c0,0.255 -0.078,0.461 -0.235,0.618c-0.157,0.157 -0.368,0.235 -0.633,0.235c-0.255,0 -0.458,-0.078 -0.61,-0.235c-0.152,-0.157 -0.228,-0.363 -0.228,-0.618Z" style="fill:#fff;fill-rule:nonzero;"/></svg>